<?xml version="1.0" standalone="no"?>
<!DOCTYPE svg PUBLIC "-//W3C//DTD SVG 20010904//EN"
 "http://www.w3.org/TR/2001/REC-SVG-20010904/DTD/svg10.dtd">
<svg version="1.0" xmlns="http://www.w3.org/2000/svg"
 width="320.000000pt" height="320.000000pt" viewBox="0 0 320.000000 320.000000"
 preserveAspectRatio="xMidYMid meet">
<metadata>
Created by potrace 1.14, written by Peter Selinger 2001-2017
</metadata>
<g transform="translate(0.000000,320.000000) scale(0.100000,-0.100000)"
fill="#000000" stroke="none">
<path d="M200 2800 l0 -200 400 0 400 0 0 -1200 0 -1200 200 0 200 0 0 1200 0
1200 400 0 400 0 0 200 0 200 -1000 0 -1000 0 0 -200z"/>
<path d="M1600 1300 l0 -1100 700 0 700 0 0 200 0 200 -500 0 -500 0 0 900 0
900 -200 0 -200 0 0 -1100z"/>
</g>
</svg>
